<?xml version="1.0" encoding="UTF-8" standalone="no"?>
<!DOCTYPE svg PUBLIC "-//W3C//DTD SVG 1.1//EN"
 "http://www.w3.org/Graphics/SVG/1.1/DTD/svg11.dtd">
<!-- Generated by graphviz version 2.38.0 (20140413.2041)
 -->
<!-- Title: %3 Pages: 1 -->
<svg width="2903pt" height="692pt"
 viewBox="0.00 0.00 2903.14 692.00" xmlns="http://www.w3.org/2000/svg" xmlns:xlink="http://www.w3.org/1999/xlink">
<g id="graph0" class="graph" transform="scale(1 1) rotate(0) translate(4 688)">
<title>%3</title>
<polygon fill="white" stroke="none" points="-4,4 -4,-688 2899.14,-688 2899.14,4 -4,4"/>
<!-- [root] aws_elb.web -->
<g id="node1" class="node"><title>[root] aws_elb.web</title>
<ellipse fill="none" stroke="black" cx="1387.54" cy="-522" rx="78.2521" ry="18"/>
<text text-anchor="middle" x="1387.54" y="-517.8" font-family="Times,serif" font-size="14.00">[root] aws_elb.web</text>
</g>
<!-- [root] aws_instance.web -->
<g id="node2" class="node"><title>[root] aws_instance.web</title>
<ellipse fill="none" stroke="black" cx="737.536" cy="-450" rx="96.5931" ry="18"/>
<text text-anchor="middle" x="737.536" y="-445.8" font-family="Times,serif" font-size="14.00">[root] aws_instance.web</text>
</g>
<!-- [root] aws_elb.web&#45;&gt;[root] aws_instance.web -->
<g id="edge1" class="edge"><title>[root] aws_elb.web&#45;&gt;[root] aws_instance.web</title>
<path fill="none" stroke="black" d="M1330.24,-509.608C1318.78,-507.555 1306.8,-505.572 1295.54,-504 1209,-491.92 969.312,-470.709 833.906,-459.121"/>
<polygon fill="black" stroke="black" points="833.802,-455.599 823.54,-458.235 833.206,-462.574 833.802,-455.599"/>
</g>
<!-- [root] aws_security_group.web_inbound_sg -->
<g id="node5" class="node"><title>[root] aws_security_group.web_inbound_sg</title>
<ellipse fill="none" stroke="black" cx="1677.54" cy="-378" rx="166.128" ry="18"/>
<text text-anchor="middle" x="1677.54" y="-373.8" font-family="Times,serif" font-size="14.00">[root] aws_security_group.web_inbound_sg</text>
</g>
<!-- [root] aws_elb.web&#45;&gt;[root] aws_security_group.web_inbound_sg -->
<g id="edge2" class="edge"><title>[root] aws_elb.web&#45;&gt;[root] aws_security_group.web_inbound_sg</title>
<path fill="none" stroke="black" d="M1419.4,-505.397C1471.64,-479.82 1575.54,-428.944 1634.34,-400.149"/>
<polygon fill="black" stroke="black" points="1635.94,-403.266 1643.38,-395.725 1632.86,-396.979 1635.94,-403.266"/>
</g>
<!-- [root] module.vpc.aws_subnet.public -->
<g id="node8" class="node"><title>[root] module.vpc.aws_subnet.public</title>
<ellipse fill="none" stroke="black" cx="1259.54" cy="-306" rx="141.997" ry="18"/>
<text text-anchor="middle" x="1259.54" y="-301.8" font-family="Times,serif" font-size="14.00">[root] module.vpc.aws_subnet.public</text>
</g>
<!-- [root] aws_elb.web&#45;&gt;[root] module.vpc.aws_subnet.public -->
<g id="edge3" class="edge"><title>[root] aws_elb.web&#45;&gt;[root] module.vpc.aws_subnet.public</title>
<path fill="none" stroke="black" d="M1393.45,-503.71C1403.07,-472.142 1418.26,-404.348 1388.54,-360 1377.86,-344.072 1361.44,-332.926 1343.86,-325.129"/>
<polygon fill="black" stroke="black" points="1345.17,-321.881 1334.58,-321.349 1342.52,-328.364 1345.17,-321.881"/>
</g>
<!-- [root] provider.aws -->
<g id="node11" class="node"><title>[root] provider.aws</title>
<ellipse fill="none" stroke="black" cx="591.536" cy="-90" rx="77.7848" ry="18"/>
<text text-anchor="middle" x="591.536" y="-85.8" font-family="Times,serif" font-size="14.00">[root] provider.aws</text>
</g>
<!-- [root] aws_elb.web&#45;&gt;[root] provider.aws -->
<g id="edge5" class="edge"><title>[root] aws_elb.web&#45;&gt;[root] provider.aws</title>
<path fill="none" stroke="black" d="M1313,-516.173C1199.86,-508.161 995.248,-490.721 970.536,-468 940.761,-440.624 951.536,-419.447 951.536,-379 951.536,-379 951.536,-379 951.536,-233 951.536,-171.168 765.433,-124.842 660.841,-103.689"/>
<polygon fill="black" stroke="black" points="661.474,-100.247 650.983,-101.721 660.104,-107.111 661.474,-100.247"/>
</g>
<!-- [root] module.vpc.output.public_subnet_id -->
<g id="node14" class="node"><title>[root] module.vpc.output.public_subnet_id</title>
<ellipse fill="none" stroke="black" cx="1217.54" cy="-378" rx="161.793" ry="18"/>
<text text-anchor="middle" x="1217.54" y="-373.8" font-family="Times,serif" font-size="14.00">[root] module.vpc.output.public_subnet_id</text>
</g>
<!-- [root] aws_elb.web&#45;&gt;[root] module.vpc.output.public_subnet_id -->
<g id="edge4" class="edge"><title>[root] aws_elb.web&#45;&gt;[root] module.vpc.output.public_subnet_id</title>
<path fill="none" stroke="black" d="M1367.7,-504.433C1337.54,-479.237 1280.01,-431.186 1245.58,-402.425"/>
<polygon fill="black" stroke="black" points="1247.69,-399.626 1237.77,-395.902 1243.2,-404.999 1247.69,-399.626"/>
</g>
<!-- [root] aws_instance.web (destroy) -->
<g id="node3" class="node"><title>[root] aws_instance.web (destroy)</title>
<ellipse fill="none" stroke="black" cx="230.536" cy="-378" rx="130.862" ry="18"/>
<text text-anchor="middle" x="230.536" y="-373.8" font-family="Times,serif" font-size="14.00">[root] aws_instance.web (destroy)</text>
</g>
<!-- [root] aws_instance.web&#45;&gt;[root] aws_instance.web (destroy) -->
<g id="edge8" class="edge"><title>[root] aws_instance.web&#45;&gt;[root] aws_instance.web (destroy)</title>
<path fill="none" stroke="black" d="M665.913,-437.827C652.82,-435.843 639.273,-433.827 626.536,-432 526.783,-417.687 412.709,-402.55 332.698,-392.133"/>
<polygon fill="black" stroke="black" points="332.991,-388.642 322.623,-390.823 332.088,-395.584 332.991,-388.642"/>
</g>
<!-- [root] aws_security_group.web_host_sg -->
<g id="node4" class="node"><title>[root] aws_security_group.web_host_sg</title>
<ellipse fill="none" stroke="black" cx="2013.54" cy="-378" rx="152.137" ry="18"/>
<text text-anchor="middle" x="2013.54" y="-373.8" font-family="Times,serif" font-size="14.00">[root] aws_security_group.web_host_sg</text>
</g>
<!-- [root] aws_instance.web&#45;&gt;[root] aws_security_group.web_host_sg -->
<g id="edge9" class="edge"><title>[root] aws_instance.web&#45;&gt;[root] aws_security_group.web_host_sg</title>
<path fill="none" stroke="black" d="M824.351,-442.002C868.162,-438.639 922.146,-434.752 970.536,-432 1362.23,-409.723 1461.25,-424.613 1852.54,-396 1867.37,-394.915 1882.95,-393.553 1898.33,-392.074"/>
<polygon fill="black" stroke="black" points="1898.79,-395.546 1908.4,-391.087 1898.11,-388.579 1898.79,-395.546"/>
</g>
<!-- [root] aws_instance.web&#45;&gt;[root] module.vpc.aws_subnet.public -->
<g id="edge10" class="edge"><title>[root] aws_instance.web&#45;&gt;[root] module.vpc.aws_subnet.public</title>
<path fill="none" stroke="black" d="M792.457,-435.136C831.685,-424.975 885.605,-410.482 932.536,-396 979.274,-381.577 989.573,-373.672 1036.54,-360 1083.68,-346.275 1137.18,-333.468 1179.96,-323.883"/>
<polygon fill="black" stroke="black" points="1180.76,-327.292 1189.76,-321.703 1179.24,-320.459 1180.76,-327.292"/>
</g>
<!-- [root] aws_instance.web&#45;&gt;[root] provider.aws -->
<g id="edge12" class="edge"><title>[root] aws_instance.web&#45;&gt;[root] provider.aws</title>
<path fill="none" stroke="black" d="M645.681,-444.355C472.038,-435.177 111.063,-414.044 90.5361,-396 60.1573,-369.296 71.5361,-347.447 71.5361,-307 71.5361,-307 71.5361,-307 71.5361,-233 71.5361,-143.781 360.009,-108.691 507.235,-96.5916"/>
<polygon fill="black" stroke="black" points="507.898,-100.05 517.585,-95.7598 507.337,-93.0722 507.898,-100.05"/>
</g>
<!-- [root] aws_instance.web&#45;&gt;[root] module.vpc.output.public_subnet_id -->
<g id="edge11" class="edge"><title>[root] aws_instance.web&#45;&gt;[root] module.vpc.output.public_subnet_id</title>
<path fill="none" stroke="black" d="M810.96,-438.292C891.709,-426.516 1022.1,-407.501 1113.39,-394.188"/>
<polygon fill="black" stroke="black" points="1114.1,-397.622 1123.49,-392.715 1113.09,-390.695 1114.1,-397.622"/>
</g>
<!-- [root] var.instance_ips -->
<g id="node15" class="node"><title>[root] var.instance_ips</title>
<ellipse fill="none" stroke="black" cx="379.536" cy="-306" rx="89.3774" ry="18"/>
<text text-anchor="middle" x="379.536" y="-301.8" font-family="Times,serif" font-size="14.00">[root] var.instance_ips</text>
</g>
<!-- [root] aws_instance.web&#45;&gt;[root] var.instance_ips -->
<g id="edge14" class="edge"><title>[root] aws_instance.web&#45;&gt;[root] var.instance_ips</title>
<path fill="none" stroke="black" d="M665.606,-437.883C569.529,-422.968 410.985,-398.095 408.536,-396 390.743,-380.775 383.792,-354.49 381.116,-334.421"/>
<polygon fill="black" stroke="black" points="384.578,-333.881 380.049,-324.303 377.617,-334.615 384.578,-333.881"/>
</g>
<!-- [root] var.ami -->
<g id="node16" class="node"><title>[root] var.ami</title>
<ellipse fill="none" stroke="black" cx="476.536" cy="-378" rx="58.9668" ry="18"/>
<text text-anchor="middle" x="476.536" y="-373.8" font-family="Times,serif" font-size="14.00">[root] var.ami</text>
</g>
<!-- [root] aws_instance.web&#45;&gt;[root] var.ami -->
<g id="edge13" class="edge"><title>[root] aws_instance.web&#45;&gt;[root] var.ami</title>
<path fill="none" stroke="black" d="M684.719,-434.834C639.435,-422.689 574.531,-405.282 529.271,-393.144"/>
<polygon fill="black" stroke="black" points="529.922,-389.694 519.356,-390.484 528.108,-396.455 529.922,-389.694"/>
</g>
<!-- [root] var.instance_type -->
<g id="node17" class="node"><title>[root] var.instance_type</title>
<ellipse fill="none" stroke="black" cx="647.536" cy="-378" rx="94.1878" ry="18"/>
<text text-anchor="middle" x="647.536" y="-373.8" font-family="Times,serif" font-size="14.00">[root] var.instance_type</text>
</g>
<!-- [root] aws_instance.web&#45;&gt;[root] var.instance_type -->
<g id="edge15" class="edge"><title>[root] aws_instance.web&#45;&gt;[root] var.instance_type</title>
<path fill="none" stroke="black" d="M716.207,-432.411C704.524,-423.324 689.864,-411.922 677.093,-401.989"/>
<polygon fill="black" stroke="black" points="679.066,-399.089 669.024,-395.713 674.768,-404.615 679.066,-399.089"/>
</g>
<!-- [root] var.key_name -->
<g id="node18" class="node"><title>[root] var.key_name</title>
<ellipse fill="none" stroke="black" cx="841.536" cy="-378" rx="81.6268" ry="18"/>
<text text-anchor="middle" x="841.536" y="-373.8" font-family="Times,serif" font-size="14.00">[root] var.key_name</text>
</g>
<!-- [root] aws_instance.web&#45;&gt;[root] var.key_name -->
<g id="edge16" class="edge"><title>[root] aws_instance.web&#45;&gt;[root] var.key_name</title>
<path fill="none" stroke="black" d="M762.183,-432.411C776.142,-423.016 793.777,-411.146 808.875,-400.983"/>
<polygon fill="black" stroke="black" points="811.084,-403.716 817.425,-395.228 807.175,-397.909 811.084,-403.716"/>
</g>
<!-- [root] var.region -->
<g id="node19" class="node"><title>[root] var.region</title>
<ellipse fill="none" stroke="black" cx="298.536" cy="-18" rx="68.1287" ry="18"/>
<text text-anchor="middle" x="298.536" y="-13.8" font-family="Times,serif" font-size="14.00">[root] var.region</text>
</g>
<!-- [root] aws_instance.web&#45;&gt;[root] var.region -->
<g id="edge17" class="edge"><title>[root] aws_instance.web&#45;&gt;[root] var.region</title>
<path fill="none" stroke="black" d="M644.801,-444.865C465.38,-436.428 86.5111,-416.305 66.5361,-396 10.3633,-338.898 31.871,-291.877 57.5361,-216 88.2712,-125.134 192.25,-65.5649 253.125,-37.5773"/>
<polygon fill="black" stroke="black" points="254.823,-40.6512 262.507,-33.3567 251.951,-34.2674 254.823,-40.6512"/>
</g>
<!-- [root] aws_instance.web (destroy)&#45;&gt;[root] provider.aws -->
<g id="edge6" class="edge"><title>[root] aws_instance.web (destroy)&#45;&gt;[root] provider.aws</title>
<path fill="none" stroke="black" d="M237.294,-360.006C245.549,-340.827 260.993,-309.505 281.536,-288 361.093,-204.718 482.701,-140.89 547.422,-110.521"/>
<polygon fill="black" stroke="black" points="548.95,-113.671 556.546,-106.285 546.002,-107.322 548.95,-113.671"/>
</g>
<!-- [root] aws_instance.web (destroy)&#45;&gt;[root] var.instance_ips -->
<g id="edge7" class="edge"><title>[root] aws_instance.web (destroy)&#45;&gt;[root] var.instance_ips</title>
<path fill="none" stroke="black" d="M265.47,-360.588C286.865,-350.537 314.392,-337.605 337.045,-326.962"/>
<polygon fill="black" stroke="black" points="338.538,-330.128 346.101,-322.708 335.562,-323.792 338.538,-330.128"/>
</g>
<!-- [root] module.vpc.aws_vpc.tfb -->
<g id="node9" class="node"><title>[root] module.vpc.aws_vpc.tfb</title>
<ellipse fill="none" stroke="black" cx="2156.54" cy="-234" rx="119.295" ry="18"/>
<text text-anchor="middle" x="2156.54" y="-229.8" font-family="Times,serif" font-size="14.00">[root] module.vpc.aws_vpc.tfb</text>
</g>
<!-- [root] aws_security_group.web_host_sg&#45;&gt;[root] module.vpc.aws_vpc.tfb -->
<g id="edge18" class="edge"><title>[root] aws_security_group.web_host_sg&#45;&gt;[root] module.vpc.aws_vpc.tfb</title>
<path fill="none" stroke="black" d="M1913.82,-364.324C1838.53,-353.727 1746.23,-338.123 1734.54,-324 1724.33,-311.676 1723.95,-299.998 1734.54,-288 1754.41,-265.47 1919.59,-250.165 2037.28,-242.005"/>
<polygon fill="black" stroke="black" points="2037.7,-245.484 2047.44,-241.31 2037.22,-238.5 2037.7,-245.484"/>
</g>
<!-- [root] aws_security_group.web_host_sg&#45;&gt;[root] provider.aws -->
<g id="edge21" class="edge"><title>[root] aws_security_group.web_host_sg&#45;&gt;[root] provider.aws</title>
<path fill="none" stroke="black" d="M1918.58,-363.877C1861.5,-354.945 1787.71,-341.552 1723.54,-324 1589.67,-287.388 1562.35,-259.446 1430.54,-216 1321.94,-180.205 1295.9,-165.198 1183.54,-144 1006.12,-110.529 794.676,-98.0528 678.598,-93.5082"/>
<polygon fill="black" stroke="black" points="678.478,-90.0012 668.352,-93.1181 678.211,-96.9962 678.478,-90.0012"/>
</g>
<!-- [root] module.vpc.output.cidr -->
<g id="node20" class="node"><title>[root] module.vpc.output.cidr</title>
<ellipse fill="none" stroke="black" cx="2126.54" cy="-306" rx="114.961" ry="18"/>
<text text-anchor="middle" x="2126.54" y="-301.8" font-family="Times,serif" font-size="14.00">[root] module.vpc.output.cidr</text>
</g>
<!-- [root] aws_security_group.web_host_sg&#45;&gt;[root] module.vpc.output.cidr -->
<g id="edge19" class="edge"><title>[root] aws_security_group.web_host_sg&#45;&gt;[root] module.vpc.output.cidr</title>
<path fill="none" stroke="black" d="M2040.6,-360.233C2055.7,-350.882 2074.68,-339.123 2090.96,-329.036"/>
<polygon fill="black" stroke="black" points="2093.03,-331.871 2099.69,-323.63 2089.35,-325.921 2093.03,-331.871"/>
</g>
<!-- [root] module.vpc.output.vpc_id -->
<g id="node21" class="node"><title>[root] module.vpc.output.vpc_id</title>
<ellipse fill="none" stroke="black" cx="1868.54" cy="-306" rx="125.101" ry="18"/>
<text text-anchor="middle" x="1868.54" y="-301.8" font-family="Times,serif" font-size="14.00">[root] module.vpc.output.vpc_id</text>
</g>
<!-- [root] aws_security_group.web_host_sg&#45;&gt;[root] module.vpc.output.vpc_id -->
<g id="edge20" class="edge"><title>[root] aws_security_group.web_host_sg&#45;&gt;[root] module.vpc.output.vpc_id</title>
<path fill="none" stroke="black" d="M1979.17,-360.411C1958.97,-350.656 1933.23,-338.233 1911.67,-327.823"/>
<polygon fill="black" stroke="black" points="1912.93,-324.545 1902.4,-323.349 1909.89,-330.849 1912.93,-324.545"/>
</g>
<!-- [root] aws_security_group.web_inbound_sg&#45;&gt;[root] module.vpc.aws_vpc.tfb -->
<g id="edge22" class="edge"><title>[root] aws_security_group.web_inbound_sg&#45;&gt;[root] module.vpc.aws_vpc.tfb</title>
<path fill="none" stroke="black" d="M1681.31,-359.698C1686.8,-338.989 1699.12,-304.984 1723.54,-288 1771.58,-254.58 1919.43,-242.195 2029.07,-237.628"/>
<polygon fill="black" stroke="black" points="2029.37,-241.119 2039.22,-237.223 2029.09,-234.124 2029.37,-241.119"/>
</g>
<!-- [root] aws_security_group.web_inbound_sg&#45;&gt;[root] provider.aws -->
<g id="edge24" class="edge"><title>[root] aws_security_group.web_inbound_sg&#45;&gt;[root] provider.aws</title>
<path fill="none" stroke="black" d="M1652.26,-360.131C1601.52,-327.089 1482.7,-253.781 1372.54,-216 1129.15,-132.528 823.64,-104.282 677.34,-95.1367"/>
<polygon fill="black" stroke="black" points="677.279,-91.6265 667.084,-94.5107 676.852,-98.6135 677.279,-91.6265"/>
</g>
<!-- [root] aws_security_group.web_inbound_sg&#45;&gt;[root] module.vpc.output.vpc_id -->
<g id="edge23" class="edge"><title>[root] aws_security_group.web_inbound_sg&#45;&gt;[root] module.vpc.output.vpc_id</title>
<path fill="none" stroke="black" d="M1722.32,-360.588C1750.15,-350.386 1786.09,-337.216 1815.37,-326.485"/>
<polygon fill="black" stroke="black" points="1816.84,-329.675 1825.02,-322.947 1814.43,-323.102 1816.84,-329.675"/>
</g>
<!-- [root] module.vpc.aws_internet_gateway.tfb -->
<g id="node6" class="node"><title>[root] module.vpc.aws_internet_gateway.tfb</title>
<ellipse fill="none" stroke="black" cx="2540.54" cy="-306" rx="166.897" ry="18"/>
<text text-anchor="middle" x="2540.54" y="-301.8" font-family="Times,serif" font-size="14.00">[root] module.vpc.aws_internet_gateway.tfb</text>
</g>
<!-- [root] module.vpc.aws_internet_gateway.tfb&#45;&gt;[root] module.vpc.aws_vpc.tfb -->
<g id="edge25" class="edge"><title>[root] module.vpc.aws_internet_gateway.tfb&#45;&gt;[root] module.vpc.aws_vpc.tfb</title>
<path fill="none" stroke="black" d="M2459.57,-290.24C2394.92,-278.456 2304.69,-262.008 2239.52,-250.128"/>
<polygon fill="black" stroke="black" points="2239.75,-246.612 2229.29,-248.262 2238.5,-253.499 2239.75,-246.612"/>
</g>
<!-- [root] module.vpc.provider.aws -->
<g id="node10" class="node"><title>[root] module.vpc.provider.aws</title>
<ellipse fill="none" stroke="black" cx="2773.54" cy="-162" rx="121.718" ry="18"/>
<text text-anchor="middle" x="2773.54" y="-157.8" font-family="Times,serif" font-size="14.00">[root] module.vpc.provider.aws</text>
</g>
<!-- [root] module.vpc.aws_internet_gateway.tfb&#45;&gt;[root] module.vpc.provider.aws -->
<g id="edge26" class="edge"><title>[root] module.vpc.aws_internet_gateway.tfb&#45;&gt;[root] module.vpc.provider.aws</title>
<path fill="none" stroke="black" d="M2568.18,-288.153C2610.42,-262.41 2691.03,-213.281 2737.71,-184.836"/>
<polygon fill="black" stroke="black" points="2739.57,-187.798 2746.29,-179.605 2735.93,-181.821 2739.57,-187.798"/>
</g>
<!-- [root] module.vpc.var.name -->
<g id="node22" class="node"><title>[root] module.vpc.var.name</title>
<ellipse fill="none" stroke="black" cx="2187.54" cy="-162" rx="108.179" ry="18"/>
<text text-anchor="middle" x="2187.54" y="-157.8" font-family="Times,serif" font-size="14.00">[root] module.vpc.var.name</text>
</g>
<!-- [root] module.vpc.aws_internet_gateway.tfb&#45;&gt;[root] module.vpc.var.name -->
<g id="edge27" class="edge"><title>[root] module.vpc.aws_internet_gateway.tfb&#45;&gt;[root] module.vpc.var.name</title>
<path fill="none" stroke="black" d="M2499.35,-288.433C2433.87,-262.09 2306.27,-210.764 2236.32,-182.622"/>
<polygon fill="black" stroke="black" points="2237.42,-179.295 2226.84,-178.81 2234.81,-185.789 2237.42,-179.295"/>
</g>
<!-- [root] module.vpc.aws_route.internet_access -->
<g id="node7" class="node"><title>[root] module.vpc.aws_route.internet_access</title>
<ellipse fill="none" stroke="black" cx="2504.54" cy="-378" rx="168.982" ry="18"/>
<text text-anchor="middle" x="2504.54" y="-373.8" font-family="Times,serif" font-size="14.00">[root] module.vpc.aws_route.internet_access</text>
</g>
<!-- [root] module.vpc.aws_route.internet_access&#45;&gt;[root] module.vpc.aws_internet_gateway.tfb -->
<g id="edge28" class="edge"><title>[root] module.vpc.aws_route.internet_access&#45;&gt;[root] module.vpc.aws_internet_gateway.tfb</title>
<path fill="none" stroke="black" d="M2513.43,-359.697C2517.53,-351.728 2522.48,-342.1 2527.03,-333.264"/>
<polygon fill="black" stroke="black" points="2530.28,-334.598 2531.74,-324.104 2524.05,-331.396 2530.28,-334.598"/>
</g>
<!-- [root] module.vpc.aws_route.internet_access&#45;&gt;[root] module.vpc.aws_vpc.tfb -->
<g id="edge29" class="edge"><title>[root] module.vpc.aws_route.internet_access&#45;&gt;[root] module.vpc.aws_vpc.tfb</title>
<path fill="none" stroke="black" d="M2449.42,-360.904C2422.82,-351.96 2391,-339.489 2364.54,-324 2343.02,-311.411 2343.36,-300.035 2321.54,-288 2293.25,-272.402 2259.67,-260.566 2230.21,-252.079"/>
<polygon fill="black" stroke="black" points="2230.96,-248.655 2220.39,-249.328 2229.07,-255.396 2230.96,-248.655"/>
</g>
<!-- [root] module.vpc.aws_route.internet_access&#45;&gt;[root] module.vpc.provider.aws -->
<g id="edge30" class="edge"><title>[root] module.vpc.aws_route.internet_access&#45;&gt;[root] module.vpc.provider.aws</title>
<path fill="none" stroke="black" d="M2631.93,-366.19C2662.57,-358.276 2693.16,-345.244 2716.54,-324 2726.79,-314.676 2752.48,-233.06 2765.58,-189.746"/>
<polygon fill="black" stroke="black" points="2768.95,-190.709 2768.48,-180.124 2762.24,-188.693 2768.95,-190.709"/>
</g>
<!-- [root] module.vpc.aws_subnet.public&#45;&gt;[root] module.vpc.aws_vpc.tfb -->
<g id="edge31" class="edge"><title>[root] module.vpc.aws_subnet.public&#45;&gt;[root] module.vpc.aws_vpc.tfb</title>
<path fill="none" stroke="black" d="M1371.59,-294.947C1398.43,-292.604 1427,-290.163 1453.54,-288 1660.47,-271.134 1901.83,-253.349 2041.13,-243.268"/>
<polygon fill="black" stroke="black" points="2041.68,-246.738 2051.4,-242.526 2041.17,-239.756 2041.68,-246.738"/>
</g>
<!-- [root] module.vpc.aws_subnet.public&#45;&gt;[root] module.vpc.provider.aws -->
<g id="edge32" class="edge"><title>[root] module.vpc.aws_subnet.public&#45;&gt;[root] module.vpc.provider.aws</title>
<path fill="none" stroke="black" d="M1357.66,-292.94C1534.58,-271.314 1900.5,-227.153 2028.54,-216 2300.86,-192.277 2370.38,-205.605 2642.54,-180 2654.13,-178.909 2666.28,-177.582 2678.31,-176.156"/>
<polygon fill="black" stroke="black" points="2678.86,-179.614 2688.37,-174.937 2678.02,-172.665 2678.86,-179.614"/>
</g>
<!-- [root] module.vpc.aws_subnet.public&#45;&gt;[root] module.vpc.var.name -->
<g id="edge33" class="edge"><title>[root] module.vpc.aws_subnet.public&#45;&gt;[root] module.vpc.var.name</title>
<path fill="none" stroke="black" d="M1335.71,-290.735C1436.55,-272.122 1620.01,-239.197 1777.54,-216 1907.34,-196.886 1940.5,-197.434 2070.54,-180 2079.9,-178.745 2089.67,-177.392 2099.41,-176.016"/>
<polygon fill="black" stroke="black" points="2100.12,-179.451 2109.53,-174.578 2099.14,-172.521 2100.12,-179.451"/>
</g>
<!-- [root] module.vpc.var.public_subnet -->
<g id="node23" class="node"><title>[root] module.vpc.var.public_subnet</title>
<ellipse fill="none" stroke="black" cx="1224.54" cy="-234" rx="138.607" ry="18"/>
<text text-anchor="middle" x="1224.54" y="-229.8" font-family="Times,serif" font-size="14.00">[root] module.vpc.var.public_subnet</text>
</g>
<!-- [root] module.vpc.aws_subnet.public&#45;&gt;[root] module.vpc.var.public_subnet -->
<g id="edge34" class="edge"><title>[root] module.vpc.aws_subnet.public&#45;&gt;[root] module.vpc.var.public_subnet</title>
<path fill="none" stroke="black" d="M1250.88,-287.697C1246.9,-279.728 1242.09,-270.1 1237.67,-261.264"/>
<polygon fill="black" stroke="black" points="1240.69,-259.483 1233.09,-252.104 1234.43,-262.614 1240.69,-259.483"/>
</g>
<!-- [root] module.vpc.aws_vpc.tfb&#45;&gt;[root] module.vpc.provider.aws -->
<g id="edge35" class="edge"><title>[root] module.vpc.aws_vpc.tfb&#45;&gt;[root] module.vpc.provider.aws</title>
<path fill="none" stroke="black" d="M2252.05,-223.166C2350.1,-212.935 2507.06,-196.176 2642.54,-180 2653.46,-178.696 2664.88,-177.284 2676.24,-175.851"/>
<polygon fill="black" stroke="black" points="2676.71,-179.319 2686.19,-174.587 2675.83,-172.375 2676.71,-179.319"/>
</g>
<!-- [root] module.vpc.aws_vpc.tfb&#45;&gt;[root] module.vpc.var.name -->
<g id="edge39" class="edge"><title>[root] module.vpc.aws_vpc.tfb&#45;&gt;[root] module.vpc.var.name</title>
<path fill="none" stroke="black" d="M2164.2,-215.697C2167.73,-207.728 2171.99,-198.1 2175.9,-189.264"/>
<polygon fill="black" stroke="black" points="2179.11,-190.665 2179.96,-180.104 2172.71,-187.831 2179.11,-190.665"/>
</g>
<!-- [root] module.vpc.var.cidr -->
<g id="node24" class="node"><title>[root] module.vpc.var.cidr</title>
<ellipse fill="none" stroke="black" cx="1598.54" cy="-162" rx="102.875" ry="18"/>
<text text-anchor="middle" x="1598.54" y="-157.8" font-family="Times,serif" font-size="14.00">[root] module.vpc.var.cidr</text>
</g>
<!-- [root] module.vpc.aws_vpc.tfb&#45;&gt;[root] module.vpc.var.cidr -->
<g id="edge36" class="edge"><title>[root] module.vpc.aws_vpc.tfb&#45;&gt;[root] module.vpc.var.cidr</title>
<path fill="none" stroke="black" d="M2062.88,-222.763C1972.56,-212.679 1832.05,-196.437 1710.54,-180 1701.52,-178.78 1692.1,-177.446 1682.73,-176.079"/>
<polygon fill="black" stroke="black" points="1682.99,-172.58 1672.59,-174.586 1681.97,-179.506 1682.99,-172.58"/>
</g>
<!-- [root] module.vpc.var.enable_dns_hostnames -->
<g id="node25" class="node"><title>[root] module.vpc.var.enable_dns_hostnames</title>
<ellipse fill="none" stroke="black" cx="1890.54" cy="-162" rx="170.955" ry="18"/>
<text text-anchor="middle" x="1890.54" y="-157.8" font-family="Times,serif" font-size="14.00">[root] module.vpc.var.enable_dns_hostnames</text>
</g>
<!-- [root] module.vpc.aws_vpc.tfb&#45;&gt;[root] module.vpc.var.enable_dns_hostnames -->
<g id="edge37" class="edge"><title>[root] module.vpc.aws_vpc.tfb&#45;&gt;[root] module.vpc.var.enable_dns_hostnames</title>
<path fill="none" stroke="black" d="M2099.8,-218.069C2059.17,-207.378 2004.21,-192.914 1960.8,-181.492"/>
<polygon fill="black" stroke="black" points="1961.45,-178.041 1950.88,-178.881 1959.66,-184.811 1961.45,-178.041"/>
</g>
<!-- [root] module.vpc.var.enable_dns_support -->
<g id="node26" class="node"><title>[root] module.vpc.var.enable_dns_support</title>
<ellipse fill="none" stroke="black" cx="2473.54" cy="-162" rx="159.847" ry="18"/>
<text text-anchor="middle" x="2473.54" y="-157.8" font-family="Times,serif" font-size="14.00">[root] module.vpc.var.enable_dns_support</text>
</g>
<!-- [root] module.vpc.aws_vpc.tfb&#45;&gt;[root] module.vpc.var.enable_dns_support -->
<g id="edge38" class="edge"><title>[root] module.vpc.aws_vpc.tfb&#45;&gt;[root] module.vpc.var.enable_dns_support</title>
<path fill="none" stroke="black" d="M2221.07,-218.75C2271.26,-207.667 2341.12,-192.24 2394.63,-180.423"/>
<polygon fill="black" stroke="black" points="2395.42,-183.835 2404.43,-178.261 2393.91,-177 2395.42,-183.835"/>
</g>
<!-- [root] module.vpc.provider.aws&#45;&gt;[root] provider.aws -->
<g id="edge43" class="edge"><title>[root] module.vpc.provider.aws&#45;&gt;[root] provider.aws</title>
<path fill="none" stroke="black" d="M2690.16,-148.87C2674.37,-146.946 2657.97,-145.198 2642.54,-144 2252.07,-113.701 1019.06,-96.3482 679.087,-92.0569"/>
<polygon fill="black" stroke="black" points="679.094,-88.5568 669.051,-91.9308 679.006,-95.5563 679.094,-88.5568"/>
</g>
<!-- [root] provider.aws&#45;&gt;[root] var.region -->
<g id="edge54" class="edge"><title>[root] provider.aws&#45;&gt;[root] var.region</title>
<path fill="none" stroke="black" d="M539.491,-76.5661C488.355,-64.3493 410.454,-45.738 357.16,-33.0058"/>
<polygon fill="black" stroke="black" points="357.716,-29.5402 347.177,-30.6206 356.09,-36.3486 357.716,-29.5402"/>
</g>
<!-- [root] provider.aws (close) -->
<g id="node12" class="node"><title>[root] provider.aws (close)</title>
<ellipse fill="none" stroke="black" cx="1375.54" cy="-594" rx="104.328" ry="18"/>
<text text-anchor="middle" x="1375.54" y="-589.8" font-family="Times,serif" font-size="14.00">[root] provider.aws (close)</text>
</g>
<!-- [root] provider.aws (close)&#45;&gt;[root] aws_elb.web -->
<g id="edge48" class="edge"><title>[root] provider.aws (close)&#45;&gt;[root] aws_elb.web</title>
<path fill="none" stroke="black" d="M1378.5,-575.697C1379.82,-567.983 1381.41,-558.712 1382.89,-550.112"/>
<polygon fill="black" stroke="black" points="1386.36,-550.552 1384.6,-540.104 1379.46,-549.369 1386.36,-550.552"/>
</g>
<!-- [root] provider.aws (close)&#45;&gt;[root] aws_instance.web -->
<g id="edge50" class="edge"><title>[root] provider.aws (close)&#45;&gt;[root] aws_instance.web</title>
<path fill="none" stroke="black" d="M1314.36,-579.384C1195.17,-552.857 932.56,-494.407 807.022,-466.465"/>
<polygon fill="black" stroke="black" points="807.651,-463.02 797.13,-464.264 806.131,-469.853 807.651,-463.02"/>
</g>
<!-- [root] provider.aws (close)&#45;&gt;[root] aws_instance.web (destroy) -->
<g id="edge49" class="edge"><title>[root] provider.aws (close)&#45;&gt;[root] aws_instance.web (destroy)</title>
<path fill="none" stroke="black" d="M1290.64,-583.509C1209.87,-574.052 1085.08,-558.325 977.536,-540 727.077,-497.323 433.301,-428.397 301.183,-396.378"/>
<polygon fill="black" stroke="black" points="301.734,-392.911 291.19,-393.952 300.082,-399.713 301.734,-392.911"/>
</g>
<!-- [root] provider.aws (close)&#45;&gt;[root] aws_security_group.web_host_sg -->
<g id="edge51" class="edge"><title>[root] provider.aws (close)&#45;&gt;[root] aws_security_group.web_host_sg</title>
<path fill="none" stroke="black" d="M1420.91,-577.781C1534.27,-539.756 1829.79,-440.634 1955.54,-398.455"/>
<polygon fill="black" stroke="black" points="1957,-401.654 1965.37,-395.156 1954.78,-395.018 1957,-401.654"/>
</g>
<!-- [root] provider.aws (close)&#45;&gt;[root] aws_security_group.web_inbound_sg -->
<g id="edge52" class="edge"><title>[root] provider.aws (close)&#45;&gt;[root] aws_security_group.web_inbound_sg</title>
<path fill="none" stroke="black" d="M1409.39,-576.773C1428.93,-566.947 1453.68,-553.697 1474.54,-540 1541.13,-496.273 1612.74,-435.992 1650.55,-402.99"/>
<polygon fill="black" stroke="black" points="1653.33,-405.214 1658.54,-395.989 1648.71,-399.951 1653.33,-405.214"/>
</g>
<!-- [root] provider.aws (close)&#45;&gt;[root] provider.aws -->
<g id="edge53" class="edge"><title>[root] provider.aws (close)&#45;&gt;[root] provider.aws</title>
<path fill="none" stroke="black" d="M1278.64,-587.371C1160.94,-579.836 956.534,-564.504 782.536,-540 740.739,-534.114 63.4058,-428.552 36.5361,-396 -37.9328,-305.782 10.6885,-201.55 112.536,-144 177.476,-107.305 384.322,-96.0151 503.897,-92.5423"/>
<polygon fill="black" stroke="black" points="504.225,-96.0346 514.124,-92.2581 504.03,-89.0373 504.225,-96.0346"/>
</g>
<!-- [root] provider.module.vpc.aws (close) -->
<g id="node13" class="node"><title>[root] provider.module.vpc.aws (close)</title>
<ellipse fill="none" stroke="black" cx="2493.54" cy="-450" rx="147.76" ry="18"/>
<text text-anchor="middle" x="2493.54" y="-445.8" font-family="Times,serif" font-size="14.00">[root] provider.module.vpc.aws (close)</text>
</g>
<!-- [root] provider.module.vpc.aws (close)&#45;&gt;[root] module.vpc.aws_internet_gateway.tfb -->
<g id="edge55" class="edge"><title>[root] provider.module.vpc.aws (close)&#45;&gt;[root] module.vpc.aws_internet_gateway.tfb</title>
<path fill="none" stroke="black" d="M2579.18,-435.325C2622.85,-426.423 2669.46,-413.244 2682.54,-396 2692.2,-383.25 2691.66,-373.144 2682.54,-360 2671.48,-344.077 2655.03,-332.93 2637.21,-325.127"/>
<polygon fill="black" stroke="black" points="2638.37,-321.821 2627.79,-321.345 2635.76,-328.318 2638.37,-321.821"/>
</g>
<!-- [root] provider.module.vpc.aws (close)&#45;&gt;[root] module.vpc.aws_route.internet_access -->
<g id="edge56" class="edge"><title>[root] provider.module.vpc.aws (close)&#45;&gt;[root] module.vpc.aws_route.internet_access</title>
<path fill="none" stroke="black" d="M2496.26,-431.697C2497.47,-423.983 2498.92,-414.712 2500.28,-406.112"/>
<polygon fill="black" stroke="black" points="2503.75,-406.526 2501.85,-396.104 2496.84,-405.44 2503.75,-406.526"/>
</g>
<!-- [root] provider.module.vpc.aws (close)&#45;&gt;[root] module.vpc.aws_subnet.public -->
<g id="edge57" class="edge"><title>[root] provider.module.vpc.aws (close)&#45;&gt;[root] module.vpc.aws_subnet.public</title>
<path fill="none" stroke="black" d="M2348.62,-446.305C2092.38,-440.794 1579.03,-426.131 1502.54,-396 1479.35,-386.866 1481.67,-371.466 1459.54,-360 1426.73,-343.005 1388.01,-331.111 1353.41,-322.962"/>
<polygon fill="black" stroke="black" points="1353.82,-319.467 1343.3,-320.657 1352.27,-326.292 1353.82,-319.467"/>
</g>
<!-- [root] provider.module.vpc.aws (close)&#45;&gt;[root] module.vpc.aws_vpc.tfb -->
<g id="edge58" class="edge"><title>[root] provider.module.vpc.aws (close)&#45;&gt;[root] module.vpc.aws_vpc.tfb</title>
<path fill="none" stroke="black" d="M2403.13,-435.718C2375.84,-427.933 2347.58,-415.585 2326.54,-396 2288.72,-360.799 2319.77,-324.831 2283.54,-288 2268.13,-272.341 2247.41,-261.093 2227.18,-253.108"/>
<polygon fill="black" stroke="black" points="2228.22,-249.761 2217.63,-249.555 2225.78,-256.322 2228.22,-249.761"/>
</g>
<!-- [root] provider.module.vpc.aws (close)&#45;&gt;[root] module.vpc.provider.aws -->
<g id="edge59" class="edge"><title>[root] provider.module.vpc.aws (close)&#45;&gt;[root] module.vpc.provider.aws</title>
<path fill="none" stroke="black" d="M2603.48,-437.921C2636.95,-430.258 2672.11,-417.425 2699.54,-396 2763.73,-345.86 2773.26,-239.947 2774.01,-190.065"/>
<polygon fill="black" stroke="black" points="2777.51,-190.048 2774.06,-180.034 2770.51,-190.019 2777.51,-190.048"/>
</g>
<!-- [root] module.vpc.output.public_subnet_id&#45;&gt;[root] module.vpc.aws_subnet.public -->
<g id="edge41" class="edge"><title>[root] module.vpc.output.public_subnet_id&#45;&gt;[root] module.vpc.aws_subnet.public</title>
<path fill="none" stroke="black" d="M1227.92,-359.697C1232.8,-351.559 1238.72,-341.689 1244.12,-332.701"/>
<polygon fill="black" stroke="black" points="1247.13,-334.48 1249.27,-324.104 1241.13,-330.879 1247.13,-334.48"/>
</g>
<!-- [root] module.vpc.output.cidr&#45;&gt;[root] module.vpc.aws_vpc.tfb -->
<g id="edge40" class="edge"><title>[root] module.vpc.output.cidr&#45;&gt;[root] module.vpc.aws_vpc.tfb</title>
<path fill="none" stroke="black" d="M2133.95,-287.697C2137.33,-279.813 2141.41,-270.304 2145.16,-261.546"/>
<polygon fill="black" stroke="black" points="2148.48,-262.675 2149.21,-252.104 2142.05,-259.917 2148.48,-262.675"/>
</g>
<!-- [root] module.vpc.output.vpc_id&#45;&gt;[root] module.vpc.aws_vpc.tfb -->
<g id="edge42" class="edge"><title>[root] module.vpc.output.vpc_id&#45;&gt;[root] module.vpc.aws_vpc.tfb</title>
<path fill="none" stroke="black" d="M1929.26,-290.24C1975.17,-279.081 2038.3,-263.739 2086.37,-252.054"/>
<polygon fill="black" stroke="black" points="2087.5,-255.382 2096.39,-249.619 2085.84,-248.58 2087.5,-255.382"/>
</g>
<!-- [root] output.addresses -->
<g id="node27" class="node"><title>[root] output.addresses</title>
<ellipse fill="none" stroke="black" cx="417.536" cy="-522" rx="91.3067" ry="18"/>
<text text-anchor="middle" x="417.536" y="-517.8" font-family="Times,serif" font-size="14.00">[root] output.addresses</text>
</g>
<!-- [root] output.addresses&#45;&gt;[root] aws_instance.web -->
<g id="edge44" class="edge"><title>[root] output.addresses&#45;&gt;[root] aws_instance.web</title>
<path fill="none" stroke="black" d="M476.229,-508.161C530.186,-496.358 610.256,-478.842 667.528,-466.314"/>
<polygon fill="black" stroke="black" points="668.566,-469.67 677.587,-464.114 667.07,-462.832 668.566,-469.67"/>
</g>
<!-- [root] output.elb_address -->
<g id="node28" class="node"><title>[root] output.elb_address</title>
<ellipse fill="none" stroke="black" cx="1596.54" cy="-594" rx="99.0243" ry="18"/>
<text text-anchor="middle" x="1596.54" y="-589.8" font-family="Times,serif" font-size="14.00">[root] output.elb_address</text>
</g>
<!-- [root] output.elb_address&#45;&gt;[root] aws_elb.web -->
<g id="edge45" class="edge"><title>[root] output.elb_address&#45;&gt;[root] aws_elb.web</title>
<path fill="none" stroke="black" d="M1551.44,-577.897C1518.68,-566.923 1474.24,-552.041 1439.91,-540.54"/>
<polygon fill="black" stroke="black" points="1440.65,-537.097 1430.05,-537.24 1438.42,-543.735 1440.65,-537.097"/>
</g>
<!-- [root] output.public_subnet_id -->
<g id="node29" class="node"><title>[root] output.public_subnet_id</title>
<ellipse fill="none" stroke="black" cx="1097.54" cy="-450" rx="118.361" ry="18"/>
<text text-anchor="middle" x="1097.54" y="-445.8" font-family="Times,serif" font-size="14.00">[root] output.public_subnet_id</text>
</g>
<!-- [root] output.public_subnet_id&#45;&gt;[root] module.vpc.aws_subnet.public -->
<g id="edge46" class="edge"><title>[root] output.public_subnet_id&#45;&gt;[root] module.vpc.aws_subnet.public</title>
<path fill="none" stroke="black" d="M1075.93,-432.033C1054.86,-413.431 1028.44,-383.151 1046.54,-360 1060.45,-342.204 1107.15,-329.524 1153.3,-321.038"/>
<polygon fill="black" stroke="black" points="1154.2,-324.433 1163.43,-319.238 1152.97,-317.541 1154.2,-324.433"/>
</g>
<!-- [root] output.public_subnet_id&#45;&gt;[root] module.vpc.output.public_subnet_id -->
<g id="edge47" class="edge"><title>[root] output.public_subnet_id&#45;&gt;[root] module.vpc.output.public_subnet_id</title>
<path fill="none" stroke="black" d="M1125.97,-432.411C1142.03,-423.046 1162.3,-411.224 1179.68,-401.084"/>
<polygon fill="black" stroke="black" points="1181.59,-404.018 1188.47,-395.956 1178.07,-397.972 1181.59,-404.018"/>
</g>
<!-- [root] root -->
<g id="node30" class="node"><title>[root] root</title>
<ellipse fill="none" stroke="black" cx="1958.54" cy="-666" rx="46.8976" ry="18"/>
<text text-anchor="middle" x="1958.54" y="-661.8" font-family="Times,serif" font-size="14.00">[root] root</text>
</g>
<!-- [root] root&#45;&gt;[root] module.vpc.aws_route.internet_access -->
<g id="edge60" class="edge"><title>[root] root&#45;&gt;[root] module.vpc.aws_route.internet_access</title>
<path fill="none" stroke="black" d="M2005.03,-663.37C2084.77,-659.631 2242.98,-647.794 2283.54,-612 2346.07,-556.819 2278.14,-491.534 2336.54,-432 2353.03,-415.189 2374.8,-403.695 2397.18,-395.842"/>
<polygon fill="black" stroke="black" points="2398.38,-399.132 2406.79,-392.694 2396.2,-392.479 2398.38,-399.132"/>
</g>
<!-- [root] root&#45;&gt;[root] module.vpc.aws_subnet.public -->
<g id="edge61" class="edge"><title>[root] root&#45;&gt;[root] module.vpc.aws_subnet.public</title>
<path fill="none" stroke="black" d="M1932.34,-651.016C1857.78,-611.199 1637.95,-493.785 1455.54,-396 1425.74,-380.029 1419.1,-374.442 1388.54,-360 1363.62,-348.226 1335.36,-336.445 1311.65,-326.99"/>
<polygon fill="black" stroke="black" points="1312.72,-323.649 1302.14,-323.221 1310.14,-330.157 1312.72,-323.649"/>
</g>
<!-- [root] root&#45;&gt;[root] module.vpc.aws_vpc.tfb -->
<g id="edge62" class="edge"><title>[root] root&#45;&gt;[root] module.vpc.aws_vpc.tfb</title>
<path fill="none" stroke="black" d="M2005.1,-664.278C2091.85,-660.208 2269.54,-637.852 2269.54,-523 2269.54,-523 2269.54,-523 2269.54,-377 2269.54,-336.553 2274.49,-320.59 2250.54,-288 2240.43,-274.249 2225.61,-263.573 2210.72,-255.526"/>
<polygon fill="black" stroke="black" points="2211.98,-252.241 2201.48,-250.85 2208.82,-258.487 2211.98,-252.241"/>
</g>
<!-- [root] root&#45;&gt;[root] provider.aws (close) -->
<g id="edge70" class="edge"><title>[root] root&#45;&gt;[root] provider.aws (close)</title>
<path fill="none" stroke="black" d="M1913.75,-660.508C1830.1,-651.993 1644.44,-632.511 1488.54,-612 1479.34,-610.79 1469.73,-609.455 1460.17,-608.081"/>
<polygon fill="black" stroke="black" points="1460.64,-604.613 1450.24,-606.638 1459.64,-611.54 1460.64,-604.613"/>
</g>
<!-- [root] root&#45;&gt;[root] provider.module.vpc.aws (close) -->
<g id="edge71" class="edge"><title>[root] root&#45;&gt;[root] provider.module.vpc.aws (close)</title>
<path fill="none" stroke="black" d="M2003.94,-661.769C2088.42,-655.202 2266.23,-638.625 2321.54,-612 2330.4,-607.734 2423.07,-518.966 2468.58,-475.104"/>
<polygon fill="black" stroke="black" points="2471.22,-477.428 2475.98,-467.967 2466.36,-472.389 2471.22,-477.428"/>
</g>
<!-- [root] root&#45;&gt;[root] module.vpc.output.public_subnet_id -->
<g id="edge64" class="edge"><title>[root] root&#45;&gt;[root] module.vpc.output.public_subnet_id</title>
<path fill="none" stroke="black" d="M1911.87,-664.667C1763.72,-663.172 1310.88,-655.088 1262.54,-612 1254.83,-605.131 1231.6,-466.147 1221.88,-406.169"/>
<polygon fill="black" stroke="black" points="1225.33,-405.58 1220.28,-396.265 1218.42,-406.695 1225.33,-405.58"/>
</g>
<!-- [root] root&#45;&gt;[root] module.vpc.output.cidr -->
<g id="edge63" class="edge"><title>[root] root&#45;&gt;[root] module.vpc.output.cidr</title>
<path fill="none" stroke="black" d="M2003.92,-661.759C2081.55,-653.482 2231.54,-624.372 2231.54,-523 2231.54,-523 2231.54,-523 2231.54,-449 2231.54,-406.656 2223.07,-393.78 2197.54,-360 2188.58,-348.151 2176.28,-337.7 2164.43,-329.278"/>
<polygon fill="black" stroke="black" points="2166.18,-326.233 2155.94,-323.514 2162.24,-332.025 2166.18,-326.233"/>
</g>
<!-- [root] root&#45;&gt;[root] module.vpc.output.vpc_id -->
<g id="edge65" class="edge"><title>[root] root&#45;&gt;[root] module.vpc.output.vpc_id</title>
<path fill="none" stroke="black" d="M2001.64,-658.843C2069.48,-646.449 2193.54,-611.663 2193.54,-523 2193.54,-523 2193.54,-523 2193.54,-449 2193.54,-408.553 2203.69,-388.04 2174.54,-360 2166.8,-352.555 2050.12,-333.841 1963.13,-320.773"/>
<polygon fill="black" stroke="black" points="1963.62,-317.308 1953.21,-319.289 1962.58,-324.231 1963.62,-317.308"/>
</g>
<!-- [root] root&#45;&gt;[root] output.addresses -->
<g id="edge67" class="edge"><title>[root] root&#45;&gt;[root] output.addresses</title>
<path fill="none" stroke="black" d="M1911.74,-665.085C1679.26,-665.267 654.387,-663.14 522.536,-612 488.161,-598.667 457.081,-569.077 437.811,-547.67"/>
<polygon fill="black" stroke="black" points="440.243,-545.134 431.021,-539.916 434.976,-549.745 440.243,-545.134"/>
</g>
<!-- [root] root&#45;&gt;[root] output.elb_address -->
<g id="edge68" class="edge"><title>[root] root&#45;&gt;[root] output.elb_address</title>
<path fill="none" stroke="black" d="M1917.71,-657.106C1858.08,-645.574 1746.13,-623.927 1671.44,-609.484"/>
<polygon fill="black" stroke="black" points="1672.09,-606.046 1661.61,-607.584 1670.77,-612.919 1672.09,-606.046"/>
</g>
<!-- [root] root&#45;&gt;[root] output.public_subnet_id -->
<g id="edge69" class="edge"><title>[root] root&#45;&gt;[root] output.public_subnet_id</title>
<path fill="none" stroke="black" d="M1912.04,-663.742C1760.92,-659.364 1289.95,-643.321 1229.54,-612 1171.8,-582.067 1130.02,-514.682 1110.28,-477.275"/>
<polygon fill="black" stroke="black" points="1113.21,-475.308 1105.53,-468.013 1106.98,-478.507 1113.21,-475.308"/>
</g>
<!-- [root] module.vpc.plan&#45;destroy -->
<g id="node31" class="node"><title>[root] module.vpc.plan&#45;destroy</title>
<ellipse fill="none" stroke="black" cx="2493.54" cy="-594" rx="120.248" ry="18"/>
<text text-anchor="middle" x="2493.54" y="-589.8" font-family="Times,serif" font-size="14.00">[root] module.vpc.plan&#45;destroy</text>
</g>
<!-- [root] root&#45;&gt;[root] module.vpc.plan&#45;destroy -->
<g id="edge66" class="edge"><title>[root] root&#45;&gt;[root] module.vpc.plan&#45;destroy</title>
<path fill="none" stroke="black" d="M2002.32,-659.272C2087.92,-648.072 2279.29,-623.033 2396.29,-607.724"/>
<polygon fill="black" stroke="black" points="2396.87,-611.178 2406.33,-606.41 2395.96,-604.237 2396.87,-611.178"/>
</g>
</g>
</svg>
